<svg width="153" height="127" viewBox="0 0 153 127" fill="none" xmlns="http://www.w3.org/2000/svg">
<g clip-path="url(#clip0_849_439288)">
<path opacity="0.5" d="M108.701 59.7246H143.99C148.663 59.7246 152.447 63.6199 152.447 68.4298V118.185C152.447 122.995 148.663 126.89 143.99 126.89H108.701C104.028 126.89 100.244 122.995 100.244 118.185V68.4298C100.244 63.6199 104.028 59.7246 108.701 59.7246Z" fill="#BFC2D6"/>
<path d="M131.533 42.5214C131.533 37.7059 127.642 33.8062 122.836 33.8062H86.1563C81.3507 33.8062 77.459 37.7059 77.459 42.5214V126.659H131.533V42.5214Z" fill="url(#paint0_linear_849_439288)"/>
<path d="M100.1 98.4829H108.891" stroke="white" stroke-width="3" stroke-linecap="round" stroke-linejoin="round"/>
<path d="M100.1 89.3188H108.891" stroke="white" stroke-width="3" stroke-linecap="round" stroke-linejoin="round"/>
<path d="M46.6526 127C56.6726 127 64.7955 123.519 64.7955 119.225C64.7955 114.93 56.6726 111.449 46.6526 111.449C36.6326 111.449 28.5098 114.93 28.5098 119.225C28.5098 123.519 36.6326 127 46.6526 127Z" fill="#BFC2D6" fill-opacity="0.3"/>
<path d="M92.3374 46.174C92.3374 62.1616 84.212 76.2558 71.8498 84.534C68.6574 86.6821 65.7621 89.1699 63.2065 91.9547C62.0433 93.2029 60.965 94.5189 59.9546 95.8774C59.649 96.2764 59.3603 96.684 59.0716 97.0915C57.866 98.8151 56.7622 100.607 55.7943 102.483C53.9858 105.922 52.5934 109.581 51.6254 113.393C50.9122 116.221 48.5349 117.647 46.1576 117.647C43.7802 117.647 41.4114 116.221 40.7067 113.393C39.7557 109.581 38.3463 105.922 36.5378 102.483C35.3322 100.174 33.9397 97.966 32.3775 95.8774C31.3671 94.5104 30.2803 93.2029 29.1256 91.9463C26.5615 89.1614 23.6662 86.6652 20.4653 84.5256C7.08429 75.5511 -1.3298 59.7673 0.173021 42.124C2.07489 19.6751 20.4144 1.65828 42.8887 0.113014C69.88 -1.74641 92.3374 19.5817 92.3374 46.174Z" fill="#A9C4F9"/>
<path d="M46.1726 61.168C54.4584 61.168 61.1753 54.4511 61.1753 46.1653C61.1753 37.8795 54.4584 31.1626 46.1726 31.1626C37.8869 31.1626 31.1699 37.8795 31.1699 46.1653C31.1699 54.4511 37.8869 61.168 46.1726 61.168Z" fill="white"/>
</g>
<defs>
<linearGradient id="paint0_linear_849_439288" x1="104.496" y1="116.964" x2="104.496" y2="13.8179" gradientUnits="userSpaceOnUse">
<stop stop-color="#96A8D1"/>
<stop offset="1" stop-color="#D1D5E5"/>
</linearGradient>
<clipPath id="clip0_849_439288">
<rect width="153" height="127" fill="white"/>
</clipPath>
</defs>
</svg>
