<svg width="24" height="24" viewBox="0 0 24 24" fill="none" xmlns="http://www.w3.org/2000/svg">
<path fill-rule="evenodd" clip-rule="evenodd" d="M3 3.32592C3 2.59421 3.60608 2 4.35241 2H12V23H4.35241C3.60608 23 3 22.4058 3 21.6741V3.32592ZM21 7V21.6741C21 22.4058 20.3939 23 19.6476 23H12V2H16L21 7Z" fill="url(#paint0_linear_2269_273411)"/>
<path d="M17.7397 7C16.7796 7 16 6.22036 16 5.26031V2L21 7H17.7397Z" fill="#C7D1E0"/>
<path d="M12.8983 6H11.1034C10.8435 6 10.6328 6.20529 10.6328 6.45853V11.3877C10.6328 11.641 10.8435 11.8463 11.1034 11.8463H12.8983C13.1582 11.8463 13.3689 11.641 13.3689 11.3877V6.45853C13.3689 6.20529 13.1582 6 12.8983 6Z" fill="#E55C5C"/>
<path d="M9 8.04844V9.79733C9 10.0506 9.21069 10.2559 9.47059 10.2559H14.5294C14.7893 10.2559 15 10.0506 15 9.79733V8.04844C15 7.7952 14.7893 7.58991 14.5294 7.58991H9.47059C9.21069 7.58991 9 7.7952 9 8.04844Z" fill="#E55C5C"/>
<path d="M17.7504 15H6.24957C6.11173 15 6 15.2321 6 15.5185V16.4815C6 16.7679 6.11173 17 6.24957 17H17.7504C17.8883 17 18 16.7679 18 16.4815V15.5185C18 15.2321 17.8883 15 17.7504 15Z" fill="#C7D1E0"/>
<path d="M17.7504 18H6.24957C6.11173 18 6 18.2321 6 18.5185V19.4815C6 19.7679 6.11173 20 6.24957 20H17.7504C17.8883 20 18 19.7679 18 19.4815V18.5185C18 18.2321 17.8883 18 17.7504 18Z" fill="#C7D1E0"/>
<defs>
<linearGradient id="paint0_linear_2269_273411" x1="12" y1="2" x2="12" y2="23" gradientUnits="userSpaceOnUse">
<stop stop-color="#EAF2FF"/>
<stop offset="1" stop-color="#CDDCF4"/>
</linearGradient>
</defs>
</svg>
