<svg width="24" height="24" viewBox="0 0 24 24" fill="none" xmlns="http://www.w3.org/2000/svg">
<path d="M10.2528 10H13.7472C17.199 10 20 12.818 20 16.2909V20.3379C20 21.2546 19.2591 22 18.3479 22H5.65207C4.74093 22 4 21.2546 4 20.3379V16.2909C4 12.818 6.801 10 10.2528 10Z" fill="url(#paint0_linear_2269_273449)"/>
<path d="M19.978 5.99292C19.7477 3.93434 17.8638 2.25479 15.5193 2.02782C14.2022 1.90072 12.973 2.2162 12 2.82901C11.027 2.21847 9.79784 1.90072 8.48068 2.02782C6.1362 2.25479 4.25233 3.93434 4.02461 5.99292C3.91334 6.99838 4.18505 7.94256 4.72588 8.72786C6.08186 10.6934 6.78313 12.9517 6.54247 15.2395L6.50366 15.6004C6.37944 16.7784 7.33173 17.8791 8.67476 17.9904C9.87806 18.0902 10.9623 17.4048 11.2521 16.3948L12 13.7983L12.7479 16.3948C13.0377 17.4025 14.1219 18.0879 15.3252 17.9904C16.6683 17.8791 17.6206 16.7784 17.4963 15.6004L17.4575 15.2395C17.2169 12.9517 17.9181 10.6934 19.2741 8.72786C19.815 7.94256 20.0867 6.99838 19.9754 5.99292H19.978Z" fill="url(#paint1_linear_2269_273449)"/>
<defs>
<linearGradient id="paint0_linear_2269_273449" x1="6.78849" y1="14.6716" x2="20.904" y2="20.1989" gradientUnits="userSpaceOnUse">
<stop stop-color="#FF375A"/>
<stop offset="1" stop-color="#FF8543"/>
</linearGradient>
<linearGradient id="paint1_linear_2269_273449" x1="6.1155" y1="4.41778" x2="17.4659" y2="17.3588" gradientUnits="userSpaceOnUse">
<stop offset="0.1" stop-color="#D8E6FF"/>
<stop offset="1" stop-color="#BACAE7"/>
</linearGradient>
</defs>
</svg>
