<svg width="24" height="24" viewBox="0 0 24 24" fill="none" xmlns="http://www.w3.org/2000/svg">
<path d="M19.833 21.9998C20.4918 21.9998 21.0318 21.4598 21.0318 20.801V10.1679C21.0318 9.50908 20.6143 8.62577 20.1058 8.20638L12.941 2.31454C12.4307 1.89515 11.5974 1.89515 11.089 2.31454L3.92599 8.20638C3.41568 8.62577 3 9.50722 3 10.1679V20.801C3 21.4598 3.54001 21.9998 4.19878 21.9998H19.833Z" fill="url(#paint0_linear_2269_273482)"/>
<path d="M15 13C15 14.6554 13.6576 16 12.0014 16C10.3453 16 9 14.6582 9 13C9 11.3418 10.3424 10 12.0014 10C13.6604 10 15 11.3418 15 13Z" fill="#87B6FF"/>
<path d="M12.0013 16C8.87756 16 6.30708 18.6304 6 22H18C17.6929 18.6304 15.1251 16 12.0013 16Z" fill="#87B6FF"/>
<defs>
<linearGradient id="paint0_linear_2269_273482" x1="3" y1="5.5" x2="21" y2="22" gradientUnits="userSpaceOnUse">
<stop stop-color="#D8E7FF"/>
<stop offset="1" stop-color="#B1CFFF"/>
</linearGradient>
</defs>
</svg>
