<svg width="24" height="24" viewBox="0 0 24 24" fill="none" xmlns="http://www.w3.org/2000/svg">
<path d="M21.2156 3H2.78438C1.7989 3 1 3.7793 1 4.74062V19.2594C1 20.2207 1.7989 21 2.78438 21H21.2156C22.2011 21 23 20.2207 23 19.2594V4.74062C23 3.7793 22.2011 3 21.2156 3Z" fill="url(#paint0_linear_2269_273549)"/>
<path d="M21 18.8968V8.44275C21 8.24299 20.8404 8.08105 20.6436 8.08105L3.35638 8.08105C3.15955 8.08105 3 8.24299 3 8.44275V18.8968C3 19.0965 3.15955 19.2585 3.35638 19.2585H20.6436C20.8404 19.2585 21 19.0965 21 18.8968Z" fill="url(#paint1_linear_2269_273549)"/>
<path d="M3.88917 6.76695C4.38025 6.76695 4.77835 6.37862 4.77835 5.89959C4.77835 5.42056 4.38025 5.03223 3.88917 5.03223C3.3981 5.03223 3 5.42056 3 5.89959C3 6.37862 3.3981 6.76695 3.88917 6.76695Z" fill="url(#paint2_linear_2269_273549)"/>
<path d="M6.67042 6.76695C7.1615 6.76695 7.5596 6.37862 7.5596 5.89959C7.5596 5.42056 7.1615 5.03223 6.67042 5.03223C6.17935 5.03223 5.78125 5.42056 5.78125 5.89959C5.78125 6.37862 6.17935 6.76695 6.67042 6.76695Z" fill="url(#paint3_linear_2269_273549)"/>
<rect x="5" y="10.1133" width="8" height="2.03226" rx="1.01613" fill="#C7D1E0"/>
<rect x="5" y="14.1777" width="11" height="2.03226" rx="1.01613" fill="#C7D1E0"/>
<defs>
<linearGradient id="paint0_linear_2269_273549" x1="2.93124" y1="2.13656" x2="20.6184" y2="20.2705" gradientUnits="userSpaceOnUse">
<stop stop-color="#6D9EF9"/>
<stop offset="1" stop-color="#3D69FA"/>
</linearGradient>
<linearGradient id="paint1_linear_2269_273549" x1="4.84479" y1="4.38928" x2="19.3688" y2="18.6981" gradientUnits="userSpaceOnUse">
<stop stop-color="#F9F7F8"/>
<stop offset="0.41" stop-color="#F0EEF8"/>
<stop offset="1" stop-color="#E9E7F9"/>
</linearGradient>
<linearGradient id="paint2_linear_2269_273549" x1="4.17282" y1="5.14016" x2="3.69156" y2="6.50184" gradientUnits="userSpaceOnUse">
<stop stop-color="#9EE1FE"/>
<stop offset="1" stop-color="#62B6F5"/>
</linearGradient>
<linearGradient id="paint3_linear_2269_273549" x1="6.95407" y1="5.14016" x2="6.47281" y2="6.50184" gradientUnits="userSpaceOnUse">
<stop stop-color="#F8E54B"/>
<stop offset="0.99" stop-color="#EBAF34"/>
</linearGradient>
</defs>
</svg>
