<svg width="33" height="32" viewBox="0 0 33 32" fill="none" xmlns="http://www.w3.org/2000/svg">
<path d="M19.2012 3H5.20117C4.0966 3 3.20117 3.89543 3.20117 5V27H21.2012V4.99305C21.2012 3.88848 20.3057 3 19.2012 3Z" stroke="#1D1D1D" stroke-width="1.6"/>
<path d="M15.002 27V20C15.002 19.4477 14.5542 19 14.002 19H10.002C9.44967 19 9.00195 19.4477 9.00195 20V27" stroke="#1D1D1D" stroke-width="1.6"/>
<path d="M9.00195 11H15.002" stroke="#1D1D1D" stroke-width="1.6"/>
<path d="M12.002 8L12.002 14" stroke="#1D1D1D" stroke-width="1.6"/>
<path d="M19.9598 16.6995C17.615 18.962 17.615 22.6338 19.9598 24.8998C20.0545 24.9914 24.2026 29 24.2026 29C24.2026 29 28.3506 24.9914 28.4454 24.8998C30.7864 22.6374 30.7864 18.9656 28.4454 16.6995C26.1005 14.4335 22.3009 14.4335 19.9598 16.6995Z" fill="white" stroke="#1D1D1D" stroke-width="1.6" stroke-linecap="round" stroke-linejoin="round"/>
<path d="M26.2012 21C26.2012 22.1053 25.3064 23 24.2012 23C23.0959 23 22.2012 22.1053 22.2012 21C22.2012 19.8947 23.0959 19 24.2012 19C25.3064 19 26.2012 19.8947 26.2012 21Z" fill="white" stroke="#1D1D1D" stroke-width="1.6" stroke-linecap="round" stroke-linejoin="round"/>
</svg>
