<svg width="32" height="32" viewBox="0 0 32 32" fill="none" xmlns="http://www.w3.org/2000/svg">
<rect width="32.0006" height="32" rx="16" fill="white"/>
<path d="M31.9994 16.0588C31.9994 7.18983 24.836 0 15.9997 0C7.16338 0 0 7.18983 0 16.0588C0 23.5897 5.16598 29.9091 12.1348 31.6448V20.9663H8.83566V16.0588H12.1348V13.9442C12.1348 8.47839 14.5994 5.94496 19.9458 5.94496C20.9596 5.94496 22.7087 6.14473 23.4242 6.34386V10.7921C23.0466 10.7523 22.3906 10.7324 21.5759 10.7324C18.9526 10.7324 17.9388 11.73 17.9388 14.3231V16.0588H23.165L22.2671 20.9663H17.9388V32C25.8612 31.0397 32 24.2693 32 16.0588H31.9994Z" fill="#1877F2"/>
</svg>
