<svg width="40" height="40" viewBox="0 0 40 40" fill="none" xmlns="http://www.w3.org/2000/svg">
<path d="M27.3919 28.8739C27.0283 28.8739 26.6676 28.7352 26.3893 28.4605L23.5975 25.6882C23.0409 25.136 23.0409 24.2412 23.5947 23.6862C24.1485 23.1311 25.046 23.1311 25.6026 23.6833L28.3944 26.4556C28.9511 27.0078 28.9511 27.9026 28.3972 28.4577C28.1189 28.7352 27.7554 28.8739 27.3919 28.8739Z" fill="#E3E8F4"/>
<path d="M16.0081 2.00058C8.7574 1.93262 2.93243 7.82267 3.00059 15.1569C3.06875 22.4912 9.00165 28.4945 16.2523 28.5624C23.503 28.6304 29.3251 22.7403 29.257 15.4061C29.1888 8.07186 23.2559 2.06854 16.0081 2.00058ZM16.2182 24.918C10.9584 24.867 6.65291 20.5146 6.60463 15.1909C6.55635 9.87003 10.7795 5.59408 16.0393 5.64505C21.2991 5.69602 25.6047 10.0484 25.6529 15.3721C25.7012 20.693 21.478 24.9689 16.2182 24.918Z" fill="#E3E8F4"/>
<path d="M21.0406 13.3954H20.3747L20.8138 12.2221C20.9905 11.7463 20.7327 11.2226 20.2363 11.0533C19.7399 10.8841 19.1933 11.1311 19.0167 11.6068L17.7613 14.969L16.9212 11.8378C16.8138 11.433 16.432 11.1517 15.9976 11.1517C15.5632 11.1517 15.1814 11.4353 15.074 11.8378L14.2339 14.969L12.9785 11.6068C12.8019 11.1311 12.253 10.8841 11.7589 11.0533C11.2625 11.2226 11.0048 11.7463 11.1814 12.2221L11.6205 13.3954H10.9547C10.4272 13.3954 10 13.8048 10 14.3103C10 14.8158 10.4272 15.2252 10.9547 15.2252H12.3031L13.4845 18.3929C13.6253 18.7703 14.0024 19.0173 14.4272 18.999C14.8473 18.9808 15.2029 18.7017 15.3079 18.3129L16 15.7352L16.6921 18.3129C16.7971 18.7017 17.1551 18.9808 17.5728 18.999C17.5871 18.999 17.6014 18.999 17.6158 18.999C18.0167 18.999 18.3771 18.7566 18.5155 18.3929L19.6969 15.2252H21.0453C21.5728 15.2252 22 14.8158 22 14.3103C22 13.8048 21.5728 13.3954 21.0453 13.3954H21.0406Z" fill="#EF6250"/>
<path d="M37.5424 34.7696L34.7421 37.5476C34.1343 38.1507 33.1545 38.1507 32.5467 37.5476L25.4267 30.4795C24.8161 29.8735 24.8161 28.8881 25.4267 28.2821L28.227 25.5041C28.8348 24.901 29.8146 24.901 30.4224 25.5041L37.5424 32.5722C38.153 33.1782 38.153 34.1636 37.5424 34.7696Z" fill="#27C590"/>
</svg>
