<svg width="33" height="32" viewBox="0 0 33 32" fill="none" xmlns="http://www.w3.org/2000/svg">
<path d="M19.5996 3H5.59961C4.49504 3 3.59961 3.89543 3.59961 5V27H21.5996V4.99305C21.5996 3.88848 20.7042 3 19.5996 3Z" stroke="#1D1D1D" stroke-width="1.6"/>
<path d="M8.59961 10H16.5996" stroke="#1D1D1D" stroke-width="1.6"/>
<path d="M8.59961 14H16.5996" stroke="#1D1D1D" stroke-width="1.6"/>
<path d="M15.5996 27V20C15.5996 19.4477 15.1519 19 14.5996 19H10.5996C10.0473 19 9.59961 19.4477 9.59961 20V27" stroke="#1D1D1D" stroke-width="1.6"/>
<path d="M20.3583 16.6995C18.0134 18.962 18.0134 22.6338 20.3583 24.8998C20.453 24.9914 24.601 29 24.601 29C24.601 29 28.7491 24.9914 28.8438 24.8998C31.1849 22.6374 31.1849 18.9656 28.8438 16.6995C26.4989 14.4335 22.6994 14.4335 20.3583 16.6995Z" fill="white" stroke="#1D1D1D" stroke-width="1.6" stroke-linecap="round" stroke-linejoin="round"/>
<path d="M26.5996 21C26.5996 22.1053 25.7049 23 24.5996 23C23.4943 23 22.5996 22.1053 22.5996 21C22.5996 19.8947 23.4943 19 24.5996 19C25.7049 19 26.5996 19.8947 26.5996 21Z" fill="white" stroke="#1D1D1D" stroke-width="1.6" stroke-linecap="round" stroke-linejoin="round"/>
</svg>
