<svg width="33" height="32" viewBox="0 0 33 32" fill="none" xmlns="http://www.w3.org/2000/svg">
<path d="M18 8.83301C18 11.5901 15.7681 13.833 13 13.833C10.2319 13.833 8 11.6011 8 8.83301C8 6.06496 10.2429 3.83301 13 3.83301C15.7571 3.83301 18 6.06496 18 8.83301Z" stroke="#1D1D1D" stroke-width="1.6" stroke-linecap="round" stroke-linejoin="round"/>
<path d="M22.9851 21.5969C22.9851 18.8028 20.2259 16.5479 16.8404 16.5479H9.14467C5.74422 16.5479 3 18.815 3 21.5969V26.5479H23V21.5969H22.9851Z" stroke="#1D1D1D" stroke-width="1.6" stroke-linecap="round" stroke-linejoin="round"/>
<path d="M31.5996 22.2002C31.5996 25.958 28.5576 29 24.7998 29C21.042 29 18 25.958 18 22.2002C18 18.4424 21.042 15.4004 24.7998 15.4004C28.5576 15.4004 31.5996 18.4424 31.5996 22.2002Z" fill="white" stroke="#1D1D1D" stroke-width="1.6" stroke-linecap="round" stroke-linejoin="round"/>
<path d="M27.0664 22.2002C27.0664 25.958 26.0524 29 24.7998 29C23.5472 29 22.5332 25.958 22.5332 22.2002C22.5332 18.4424 23.5472 15.4004 24.7998 15.4004C26.0524 15.4004 27.0664 18.4424 27.0664 22.2002Z" fill="white" stroke="#1D1D1D" stroke-width="1.6" stroke-linecap="round" stroke-linejoin="round"/>
<path d="M31.5996 22.2002L18 22.2002" stroke="#1D1D1D" stroke-width="1.6" stroke-linecap="round" stroke-linejoin="round"/>
</svg>
