<svg width="32" height="32" viewBox="0 0 32 32" fill="none" xmlns="http://www.w3.org/2000/svg">
<rect width="32" height="32" rx="16" fill="#F81B1B"/>
<path fill-rule="evenodd" clip-rule="evenodd" d="M22.2509 10.7585C22.9391 10.9559 23.4818 11.5365 23.6655 12.2739C24 13.6114 24 16.4004 24 16.4004C24 16.4004 24 19.1904 23.6655 20.5268C23.4818 21.2643 22.9391 21.8449 22.2509 22.0423C21.0036 22.4004 16 22.4004 16 22.4004C16 22.4004 10.9973 22.4004 9.74909 22.0423C9.06091 21.8449 8.51818 21.2643 8.33455 20.5268C8 19.1894 8 16.4004 8 16.4004C8 16.4004 8 13.6114 8.33455 12.2739C8.51818 11.5365 9.06091 10.9559 9.74909 10.7585C10.9964 10.4004 16 10.4004 16 10.4004C16 10.4004 21.0036 10.4004 22.2509 10.7585ZM18.4 16.4004L14.4 18.4004V14.4004L18.4 16.4004Z" fill="white"/>
</svg>
