<svg width="40" height="40" viewBox="0 0 40 40" fill="none" xmlns="http://www.w3.org/2000/svg">
<path d="M35 18V14.6349C35 13.8403 34.887 13.075 34.6847 12.3447C33.8458 9.35346 31.4184 7.01071 28.3426 6.25706C27.6584 6.08763 26.9385 6 26.2008 6H25C23.8954 6 23 6.89543 23 8V18" fill="#EF6250"/>
<path d="M29.2966 32C29.5742 32 29.8502 31.9452 30.0983 31.8207C32.9946 30.3665 35 27.2528 35 23.6442V18C35 16.8954 34.1046 16 33 16H7C5.89543 16 5 16.8954 5 18V23.6442C5 27.2528 7.00541 30.3665 9.90173 31.8207" fill="#F9EDBD"/>
<path d="M17 31.5C17 33.4314 15.4314 35 13.5 35C11.5686 35 10 33.4314 10 31.5C10 29.5686 11.5686 28 13.5 28C15.4314 28 17 29.5686 17 31.5Z" fill="#FFD255"/>
<path d="M31 31.5C31 33.4314 29.4314 35 27.5 35C25.5686 35 24 33.4314 24 31.5C24 29.5686 25.5686 28 27.5 28C29.4314 28 31 29.5686 31 31.5Z" fill="#FFD255"/>
</svg>
