<svg width="33" height="32" viewBox="0 0 33 32" fill="none" xmlns="http://www.w3.org/2000/svg">
<path d="M24.8378 25.1169C24.8378 27.5219 22.9505 29.4847 20.6425 29.4847H20.4161C18.1081 29.4847 16.2208 27.5219 16.2208 25.1169V19.2716L7.36646 14.3429C5.50069 13.3076 4.33594 11.28 4.33594 9.07993H4.34672C4.34672 6.09255 6.66545 3.67676 9.5342 3.67676" stroke="#1D1D1D" stroke-width="1.6" stroke-linecap="round" stroke-linejoin="round"/>
<path d="M11.356 5.36485C12.2494 5.36485 12.9737 4.61161 12.9737 3.68243C12.9737 2.75325 12.2494 2 11.356 2C10.4626 2 9.73828 2.75325 9.73828 3.68243C9.73828 4.61161 10.4626 5.36485 11.356 5.36485Z" stroke="#1D1D1D" stroke-width="1.6" stroke-linecap="round" stroke-linejoin="round"/>
<path d="M16.209 19.2716L25.0417 14.3429C26.9075 13.3076 28.0722 11.28 28.0722 9.07993C28.0722 6.09255 25.7535 3.67676 22.8848 3.67676" stroke="#1D1D1D" stroke-width="1.6" stroke-linecap="round" stroke-linejoin="round"/>
<path d="M21.063 5.36485C21.9565 5.36485 22.6807 4.61161 22.6807 3.68243C22.6807 2.75325 21.9565 2 21.063 2C20.1696 2 19.4453 2.75325 19.4453 3.68243C19.4453 4.61161 20.1696 5.36485 21.063 5.36485Z" stroke="#1D1D1D" stroke-width="1.6" stroke-linecap="round" stroke-linejoin="round"/>
<path d="M24.8384 24.2266C25.7319 24.2266 26.4561 23.5024 26.4561 22.6089C26.4561 21.7155 25.7319 20.9912 24.8384 20.9912C23.945 20.9912 23.2207 21.7155 23.2207 22.6089C23.2207 23.5024 23.945 24.2266 24.8384 24.2266Z" stroke="#1D1D1D" stroke-width="1.6" stroke-linecap="round" stroke-linejoin="round"/>
</svg>
