<svg width="32" height="32" viewBox="0 0 32 32" fill="none" xmlns="http://www.w3.org/2000/svg">
<rect width="32.0006" height="32" rx="16" fill="#29BE42"/>
<path d="M11.4913 14.9132C11.1873 14.9132 10.9409 15.1523 10.9409 15.4473C10.9409 15.7424 11.1873 15.9825 11.4913 15.9825C11.7954 15.9825 12.0418 15.7435 12.0418 15.4473C12.0418 15.1512 11.7954 14.9132 11.4913 14.9132Z" fill="white"/>
<path d="M16.9335 14.8573C16.6058 14.8573 16.3402 15.115 16.3402 15.4331C16.3402 15.7511 16.6058 16.0089 16.9335 16.0089C17.2613 16.0089 17.5269 15.7511 17.5269 15.4331C17.5269 15.115 17.2613 14.8573 16.9335 14.8573Z" fill="white"/>
<path d="M19.9977 15.4331C19.9977 15.1227 20.2576 14.8705 20.5775 14.8705C20.8974 14.8705 21.1573 15.1227 21.1573 15.4331C21.1573 15.7435 20.8974 15.9957 20.5775 15.9957C20.2576 15.9957 19.9977 15.7435 19.9977 15.4331Z" fill="white"/>
<path fill-rule="evenodd" clip-rule="evenodd" d="M10.1407 9.59961H21.8604C23.0427 9.59961 24.0011 10.5296 24.0011 11.6768V18.4261C24.0011 19.5732 23.0427 20.5033 21.8604 20.5033H17.7587L16.3504 23.7221C16.3504 23.7221 16.2543 24.0007 16.0192 24.0007C15.7852 24.0007 15.688 23.7221 15.688 23.7221L14.2797 20.5033H10.1407C8.95846 20.5033 8 19.5732 8 18.4261V11.6768C8 10.5296 8.95846 9.59961 10.1407 9.59961ZM11.705 16.8347C11.705 16.8347 13.0195 16.7996 13.0263 15.5658H13.0251C13.0251 15.5658 13.2026 14.1236 11.7853 13.9953C11.7853 13.9953 11.1342 13.9887 10.9093 14.3616V12.8964C10.9093 12.8964 10.0119 12.9073 9.95196 12.8986V12.8964C9.94744 12.8975 9.95196 12.8986 9.95196 12.8986V16.7305H10.9093V16.5079C10.9093 16.5079 11.1964 16.8347 11.705 16.8347ZM14.7115 16.7371V14.1137C14.7115 14.1137 14.8189 12.8317 13.3224 12.7724V13.6882C13.3224 13.6882 13.7745 13.7869 13.7745 14.1401V16.7371H14.7115ZM15.3614 15.4342C15.3614 16.2085 16.0644 16.8369 16.9325 16.8369C17.8005 16.8369 18.5035 16.2085 18.5035 15.4342C18.5035 14.6599 17.8005 14.0315 16.9325 14.0315C16.0644 14.0315 15.3614 14.6599 15.3614 15.4342ZM20.6838 18.1694C22.0797 18.1694 22.0661 16.8369 22.0661 16.8369V14.0688H21.1156V14.3495C20.8047 13.9437 20.2995 13.9964 20.2995 13.9964C19.0189 14.0874 18.9918 15.2324 18.9918 15.2324V15.6513C18.9918 16.7557 20.1582 16.8369 20.1582 16.8369C20.9811 16.8369 21.0952 16.4816 21.0952 16.4816C21.102 17.3589 20.5154 17.3063 20.5154 17.3063H20.2588V18.1694H20.6838Z" fill="white"/>
</svg>
