<svg xmlns="http://www.w3.org/2000/svg" width="20" height="20" fill="none" viewBox="0 0 20 20">
  <path stroke="#2D2D2D" stroke-width="1.4" d="M2.7 7.7h14.6V16a1.3 1.3 0 0 1-1.3 1.3H4A1.3 1.3 0 0 1 2.7 16V7.7Z"/>
  <rect width="1.8" height="1.8" x="5.7" y="11.6" fill="#2D2D2D" rx=".9"/>
  <rect width="1.8" height="1.8" x="9.1" y="11.6" fill="#2D2D2D" rx=".9"/>
  <rect width="1.8" height="1.8" x="12.5" y="11.6" fill="#2D2D2D" rx=".9"/>
  <rect width=".7" height="1.3" x="6.35" y="2.35" stroke="#2D2D2D" stroke-width=".7" rx=".35"/>
  <rect width=".7" height="1.3" x="12.95" y="2.35" stroke="#2D2D2D" stroke-width=".7" rx=".35"/>
  <mask id="a" fill="#fff">
    <path d="M2 5a2 2 0 0 1 2-2h12a2 2 0 0 1 2 2v3H2V5Z"/>
  </mask>
  <path fill="#2D2D2D" d="M.6 5A3.4 3.4 0 0 1 4 1.6h12A3.4 3.4 0 0 1 19.4 5h-2.8a.6.6 0 0 0-.6-.6H4a.6.6 0 0 0-.6.6H.6ZM18 8H2h16ZM.6 8V5A3.4 3.4 0 0 1 4 1.6v2.8a.6.6 0 0 0-.6.6v3H.6ZM16 1.6A3.4 3.4 0 0 1 19.4 5v3h-2.8V5a.6.6 0 0 0-.6-.6V1.6Z" mask="url(#a)"/>
</svg>
