<svg width="24" height="24" viewBox="0 0 24 24" fill="none" xmlns="http://www.w3.org/2000/svg">
<path fill-rule="evenodd" clip-rule="evenodd" d="M3 3.32592C3 2.59421 3.60608 2 4.35241 2H12V23H4.35241C3.60608 23 3 22.4058 3 21.6741V3.32592ZM21 7V21.6741C21 22.4058 20.3939 23 19.6476 23H12V2H16L21 7Z" fill="url(#paint0_linear_2269_273375)"/>
<path d="M17.7397 7C16.7796 7 16 6.22036 16 5.26031V2L21 7H17.7397Z" fill="#C7D1E0"/>
<path d="M14 9C14 10.1028 13.1072 11 12 11C10.8928 11 10 10.1072 10 9C10 7.89278 10.8972 7 12 7C13.1028 7 14 7.89278 14 9Z" fill="#E55C5C"/>
<path d="M15.994 14.0196C15.994 12.902 14.8904 12 13.5362 12H10.4579C9.09769 12 8 12.9069 8 14.0196V15H16V14.0196H15.994Z" fill="#E55C5C"/>
<path d="M17.7504 18H6.24957C6.11173 18 6 18.2321 6 18.5185V19.4815C6 19.7679 6.11173 20 6.24957 20H17.7504C17.8883 20 18 19.7679 18 19.4815V18.5185C18 18.2321 17.8883 18 17.7504 18Z" fill="#C7D1E0"/>
<defs>
<linearGradient id="paint0_linear_2269_273375" x1="12" y1="2" x2="12" y2="23" gradientUnits="userSpaceOnUse">
<stop stop-color="#EAF2FF"/>
<stop offset="1" stop-color="#CDDCF4"/>
</linearGradient>
</defs>
</svg>
