<svg width="24" height="24" viewBox="0 0 24 24" fill="none" xmlns="http://www.w3.org/2000/svg">
<path d="M20.7527 18.7712L5.19681 3.22672C4.92847 2.95858 4.46207 2.98989 4.15509 3.29665L3.28807 4.16304C2.98108 4.4698 2.94974 4.93585 3.21808 5.20399L18.774 20.7485C19.0423 21.0166 19.5087 20.9853 19.8157 20.6786L20.6827 19.8122C20.9897 19.5054 21.0211 19.0394 20.7527 18.7712Z" fill="url(#paint0_linear_2269_273470)"/>
<path d="M9.13348 3.96797L7.98853 2.82386C7.53319 2.36886 6.79494 2.36886 6.33959 2.82386L2.82763 6.33325C2.37229 6.78826 2.37228 7.52597 2.82763 7.98098L3.97257 9.12509C4.42791 9.58009 5.16617 9.58009 5.62151 9.12509L9.13348 5.6157C9.58882 5.16069 9.58882 4.42298 9.13348 3.96797Z" fill="url(#paint1_linear_2269_273470)"/>
<path d="M12.0768 4.12895L11.1765 3.22934C10.5009 2.55417 9.40539 2.55417 8.72972 3.22934L3.23371 8.72132C2.55804 9.39649 2.55804 10.4912 3.23371 11.1663L4.13398 12.0659C4.80964 12.7411 5.90512 12.7411 6.58078 12.0659L12.0768 6.57396C12.7525 5.89879 12.7525 4.80412 12.0768 4.12895Z" fill="url(#paint2_linear_2269_273470)"/>
<path d="M14.8665 20.032L16.0115 21.1761C16.4668 21.6311 17.2051 21.6311 17.6604 21.1761L21.1724 17.6667C21.6277 17.2117 21.6277 16.474 21.1724 16.019L20.0274 14.8749C19.5721 14.4199 18.8338 14.4199 18.3785 14.8749L14.8665 18.3843C14.4112 18.8393 14.4112 19.577 14.8665 20.032Z" fill="url(#paint3_linear_2269_273470)"/>
<path d="M11.931 19.8711L12.8313 20.7707C13.507 21.4458 14.6024 21.4458 15.2781 20.7707L20.7741 15.2787C21.4498 14.6035 21.4498 13.5088 20.7741 12.8337L19.8738 11.9341C19.1982 11.2589 18.1027 11.2589 17.427 11.9341L11.931 17.426C11.2554 18.1012 11.2554 19.1959 11.931 19.8711Z" fill="url(#paint4_linear_2269_273470)"/>
<defs>
<linearGradient id="paint0_linear_2269_273470" x1="12.5134" y1="4.14368" x2="13.6209" y2="20.642" gradientUnits="userSpaceOnUse">
<stop stop-color="#D8E7FF"/>
<stop offset="1" stop-color="#C2D1ED"/>
</linearGradient>
<linearGradient id="paint1_linear_2269_273470" x1="5.98055" y1="3.08165" x2="5.98055" y2="9.2181" gradientUnits="userSpaceOnUse">
<stop stop-color="#A46DF9"/>
<stop offset="1" stop-color="#783DFA"/>
</linearGradient>
<linearGradient id="paint2_linear_2269_273470" x1="7.65525" y1="3.56952" x2="7.65525" y2="12.2227" gradientUnits="userSpaceOnUse">
<stop stop-color="#A46DF9"/>
<stop offset="1" stop-color="#783DFA"/>
</linearGradient>
<linearGradient id="paint3_linear_2269_273470" x1="20.9131" y1="18.0269" x2="14.7721" y2="18.0269" gradientUnits="userSpaceOnUse">
<stop stop-color="#A46DF9"/>
<stop offset="1" stop-color="#783DFA"/>
</linearGradient>
<linearGradient id="paint4_linear_2269_273470" x1="20.4337" y1="16.3524" x2="11.7741" y2="16.3524" gradientUnits="userSpaceOnUse">
<stop stop-color="#A46DF9"/>
<stop offset="1" stop-color="#783DFA"/>
</linearGradient>
</defs>
</svg>
