<svg width="24" height="24" viewBox="0 0 24 24" fill="none" xmlns="http://www.w3.org/2000/svg">
<path d="M12 21C7.02944 21 3 16.9706 3 12C3 7.02944 7.02944 3 12 3C16.9706 3 21 7.02944 21 12C21 16.9706 16.9706 21 12 21Z" fill="url(#paint0_linear_2269_273394)"/>
<path d="M15.751 11.0136C16.2423 11.0136 16.6406 11.412 16.6406 11.9033C16.6406 12.3947 16.2423 12.793 15.751 12.793H12C11.5086 12.793 11.1103 12.3947 11.1103 11.9033C11.1103 11.412 11.5086 11.0136 12 11.0136H15.751Z" fill="url(#paint1_linear_2269_273394)"/>
<path d="M11.1113 6.76564C11.1113 6.27429 11.5096 5.87598 12.001 5.87598C12.4923 5.87598 12.8906 6.27429 12.8906 6.76564V11.904C12.8906 12.3954 12.4923 12.7937 12.001 12.7937C11.5096 12.7937 11.1113 12.3954 11.1113 11.904V6.76564Z" fill="url(#paint2_linear_2269_273394)"/>
<defs>
<linearGradient id="paint0_linear_2269_273394" x1="12" y1="3" x2="12" y2="21" gradientUnits="userSpaceOnUse">
<stop stop-color="#9EE1FE"/>
<stop offset="1" stop-color="#62B6F5"/>
</linearGradient>
<linearGradient id="paint1_linear_2269_273394" x1="16.6406" y1="11.9033" x2="11.1103" y2="11.9033" gradientUnits="userSpaceOnUse">
<stop stop-color="white"/>
<stop offset="0.15" stop-color="white" stop-opacity="0.95"/>
<stop offset="0.42" stop-color="white" stop-opacity="0.83"/>
<stop offset="0.77" stop-color="white" stop-opacity="0.64"/>
<stop offset="1" stop-color="white" stop-opacity="0.5"/>
</linearGradient>
<linearGradient id="paint2_linear_2269_273394" x1="12.001" y1="5.87598" x2="12.001" y2="12.7937" gradientUnits="userSpaceOnUse">
<stop stop-color="white"/>
<stop offset="0.15" stop-color="white" stop-opacity="0.95"/>
<stop offset="0.42" stop-color="white" stop-opacity="0.83"/>
<stop offset="0.77" stop-color="white" stop-opacity="0.64"/>
<stop offset="1" stop-color="white" stop-opacity="0.5"/>
</linearGradient>
</defs>
</svg>
