<svg width="24" height="24" viewBox="0 0 24 24" fill="none" xmlns="http://www.w3.org/2000/svg">
<path d="M12 4.71626C9.71166 2.42791 6.00143 2.42791 3.71626 4.71626C1.42791 7.0046 1.42791 10.7148 3.71626 13L10.5858 19.8695C11.3668 20.6506 12.6332 20.6506 13.4142 19.8695L20.2837 13C22.5721 10.7117 22.5721 7.0046 20.2837 4.71626C17.9954 2.42791 14.2883 2.42791 12 4.71626Z" fill="url(#paint0_linear_2269_273349)"/>
<path d="M14.9551 9.35399H13.646V8.0449C13.646 7.46902 13.177 7 12.6011 7H11.3989C10.823 7 10.354 7.46902 10.354 8.0449V9.35399H9.0449C8.46902 9.35399 8 9.82301 8 10.3989V11.6011C8 12.177 8.46902 12.646 9.0449 12.646H10.354V13.9551C10.354 14.531 10.823 15 11.3989 15H12.6011C13.177 15 13.646 14.531 13.646 13.9551V12.646H14.9551C15.531 12.646 16 12.177 16 11.6011V10.3989C16 9.82301 15.531 9.35399 14.9551 9.35399Z" fill="url(#paint1_linear_2269_273349)"/>
<defs>
<linearGradient id="paint0_linear_2269_273349" x1="6.70557" y1="18.3267" x2="15.8442" y2="1.9796" gradientUnits="userSpaceOnUse">
<stop stop-color="#FF8543"/>
<stop offset="1" stop-color="#FF375A"/>
</linearGradient>
<linearGradient id="paint1_linear_2269_273349" x1="7.99703" y1="11.0015" x2="16" y2="11.0015" gradientUnits="userSpaceOnUse">
<stop stop-color="white"/>
<stop offset="0.15" stop-color="white" stop-opacity="0.95"/>
<stop offset="0.43" stop-color="white" stop-opacity="0.83"/>
<stop offset="0.79" stop-color="white" stop-opacity="0.63"/>
<stop offset="1" stop-color="white" stop-opacity="0.5"/>
</linearGradient>
</defs>
</svg>
