<svg width="40" height="40" viewBox="0 0 40 40" fill="none" xmlns="http://www.w3.org/2000/svg">
<path d="M31.9951 26.8449V11.7783L24.2182 4H8.0771C5.82557 4 4 5.82589 4 8.07782V27.9222C4 30.1741 5.82557 32 8.0771 32H27.918C30.1695 32 31.9951 30.1741 31.9951 27.9222V26.8479V26.8449Z" fill="#F9EDBD"/>
<path d="M31.9996 11.7783L24.2227 4V9.91588C24.2227 10.9414 25.0563 11.7752 26.0817 11.7752H31.9996V11.7783Z" fill="#FFD255"/>
<path d="M25.198 21.3308H10.8672C10.1705 21.3308 9.54979 20.8226 9.48285 20.1288C9.40679 19.3345 10.0305 18.665 10.8094 18.665H25.1401C25.8369 18.665 26.4576 19.1732 26.5245 19.8671C26.6006 20.6613 25.9769 21.3308 25.198 21.3308Z" fill="#FFD255"/>
<path d="M16.0345 15.8562H10.8711C10.1744 15.8562 9.5537 15.348 9.48676 14.6542C9.41069 13.8599 10.0344 13.1904 10.8133 13.1904H15.9767C16.6734 13.1904 17.2941 13.6986 17.361 14.3925C17.4371 15.1867 16.8134 15.8562 16.0345 15.8562Z" fill="#FFD255"/>
<path d="M20.9462 15.8562H20.3438C19.647 15.8562 19.0264 15.348 18.9594 14.6542C18.8834 13.8599 19.5071 13.1904 20.286 13.1904H20.8884C21.5852 13.1904 22.2059 13.6986 22.2728 14.3925C22.3489 15.1867 21.7252 15.8562 20.9462 15.8562Z" fill="#FFD255"/>
<path d="M30 38C34.4183 38 38 34.4183 38 30C38 25.5817 34.4183 22 30 22C25.5817 22 22 25.5817 22 30C22 34.4183 25.5817 38 30 38Z" fill="#EF6250"/>
<path d="M34.2005 28.7966H33.6456L34.0115 27.9166C34.1587 27.5597 33.9439 27.1669 33.5302 27.04C33.1165 26.913 32.6611 27.0983 32.5139 27.4551L31.4678 29.9767L30.7677 27.6284C30.6782 27.3247 30.36 27.1137 29.998 27.1137C29.636 27.1137 29.3178 27.3265 29.2283 27.6284L28.5282 29.9767L27.4821 27.4551C27.3349 27.0983 26.8775 26.913 26.4658 27.04C26.0521 27.1669 25.8373 27.5597 25.9845 27.9166L26.3504 28.7966H25.7955C25.356 28.7966 25 29.1036 25 29.4827C25 29.8618 25.356 30.1689 25.7955 30.1689H26.9193L27.9037 32.5447C28.0211 32.8277 28.3353 33.013 28.6893 32.9993C29.0394 32.9856 29.3357 32.7763 29.4232 32.4847L30 30.5514L30.5768 32.4847C30.6643 32.7763 30.9626 32.9856 31.3107 32.9993C31.3226 32.9993 31.3345 32.9993 31.3465 32.9993C31.6806 32.9993 31.9809 32.8175 32.0963 32.5447L33.0807 30.1689H34.2045C34.644 30.1689 35 29.8618 35 29.4827C35 29.1036 34.644 28.7966 34.2045 28.7966H34.2005Z" fill="white"/>
</svg>
