<svg width="40" height="40" viewBox="0 0 40 40" fill="none" xmlns="http://www.w3.org/2000/svg">
<path d="M27.3336 6H6.66644C5.19381 6 4 7.19381 4 8.66644V30.9558C4 32.4284 5.19381 33.6222 6.66644 33.6222H27.3336C28.8062 33.6222 30 32.4284 30 30.9558V8.66644C30 7.19381 28.8062 6 27.3336 6Z" fill="#C5E8DC"/>
<path d="M24.3444 16.3111H10.1556C9.51711 16.3111 9 15.794 9 15.1556C9 14.5171 9.51711 14 10.1556 14H24.3444C24.9829 14 25.5 14.5171 25.5 15.1556C25.5 15.794 24.9829 16.3111 24.3444 16.3111Z" fill="white"/>
<path d="M22.7526 20.2486H15.0306C14.3921 20.2486 13.875 19.7315 13.875 19.0931C13.875 18.4546 14.3921 17.9375 15.0306 17.9375H22.7526C23.391 17.9375 23.9081 18.4546 23.9081 19.0931C23.9081 19.7315 23.391 20.2486 22.7526 20.2486Z" fill="white"/>
<path d="M11.3555 20.2486H10.1595C9.52102 20.2486 9.00391 19.7315 9.00391 19.0931C9.00391 18.4546 9.52102 17.9375 10.1595 17.9375H11.3555C11.9939 17.9375 12.511 18.4546 12.511 19.0931C12.511 19.7315 11.9939 20.2486 11.3555 20.2486Z" fill="white"/>
<path d="M22.7511 24.189H10.1556C9.51711 24.189 9 23.6719 9 23.0335C9 22.395 9.51711 21.8779 10.1556 21.8779H22.7511C23.3896 21.8779 23.9067 22.395 23.9067 23.0335C23.9067 23.6719 23.3896 24.189 22.7511 24.189Z" fill="white"/>
<path d="M21.6244 9.18556H12.3799C11.2359 9.18556 10.3086 8.25822 10.3086 7.11422V5.274C10.3086 4.572 10.8777 4 11.5826 4H22.4246C23.1266 4 23.6986 4.56911 23.6986 5.274V7.11422C23.6986 8.25822 22.7713 9.18556 21.6273 9.18556H21.6244Z" fill="#27C590"/>
<path d="M32.5 24.5C32.5 26.43 30.9376 28 29 28C27.0624 28 25.5 26.4376 25.5 24.5C25.5 22.5624 27.07 21 29 21C30.93 21 32.5 22.5624 32.5 24.5Z" fill="#27C590"/>
<path d="M35.9896 32.5343C35.9896 30.5784 34.0582 29 31.6883 29H26.3013C23.921 29 22 30.587 22 32.5343V36H36V32.5343H35.9896Z" fill="#27C590"/>
</svg>
