<svg width="40" height="40" viewBox="0 0 40 40" fill="none" xmlns="http://www.w3.org/2000/svg">
<path d="M23.3411 30.7633L22.1918 29.6265C21.8727 29.3108 21.3544 29.3108 21.0353 29.6265L19.886 30.7633C19.5668 31.0789 19.0486 31.0789 18.7295 30.7633L17.5801 29.6265C17.261 29.3108 16.7427 29.3108 16.4236 29.6265L15.2743 30.7633C14.9552 31.0789 14.4369 31.0789 14.1178 30.7633L12.9685 29.6265C12.6493 29.3108 12.1311 29.3108 11.8119 29.6265L10.6626 30.7633C10.3435 31.0789 9.82522 31.0789 9.5061 30.7633L8.35678 29.6265C8.03766 29.3108 7.51939 29.3108 7.20026 29.6265L6.07734 30.7372C5.67903 31.1311 5 30.8511 5 30.2957V7.15169C5.0072 5.41209 6.43485 4 8.19362 4H25.8125C27.5737 4 28.9989 5.41209 28.9989 7.15169V30.2934C28.9989 30.8487 28.3199 31.1288 27.9216 30.7348L26.7987 29.6241C26.4796 29.3085 25.9613 29.3085 25.6422 29.6241L24.4928 30.7609C24.1737 31.0765 23.6554 31.0765 23.3363 30.7609L23.3411 30.7633Z" fill="#F9D2C0"/>
<path d="M18.4594 8.53382C17.7444 8.53382 17.0718 8.83658 16.6109 9.36869C16.1429 8.8297 15.4632 8.51089 14.7483 8.49942C13.5066 8.47648 12.5 9.45125 12.5 10.6783C12.5 10.6921 12.5 10.7081 12.5 10.7219C12.5141 12.2632 13.9299 13.5315 16.0723 15.4604L16.6744 15.9994L17.267 15.4673C19.3742 13.582 20.7641 12.3389 20.75 10.7976C20.75 9.57052 19.7434 8.55676 18.5041 8.53382C18.49 8.53382 18.4735 8.53382 18.4594 8.53382Z" fill="#EF6250"/>
<path d="M10.5145 21.4289H18.4709C19.0012 21.4289 19.4307 21.0041 19.4307 20.4796C19.4307 19.9551 19.0012 19.5303 18.4709 19.5303H10.5145C9.98418 19.5303 9.55469 19.9551 9.55469 20.4796C9.55469 21.0041 9.98418 21.4289 10.5145 21.4289Z" fill="white"/>
<path d="M21.9012 21.4289H23.4944C24.0247 21.4289 24.4541 21.0041 24.4541 20.4796C24.4541 19.9551 24.0247 19.5303 23.4944 19.5303H21.9012C21.3709 19.5303 20.9414 19.9551 20.9414 20.4796C20.9414 21.0041 21.3709 21.4289 21.9012 21.4289Z" fill="white"/>
<path d="M23.4953 22.957H10.5145C9.98418 22.957 9.55469 23.3818 9.55469 23.9063C9.55469 24.4308 9.98418 24.8556 10.5145 24.8556H23.4929C24.0232 24.8556 24.4527 24.4308 24.4527 23.9063C24.4527 23.3818 24.0232 22.957 23.4929 22.957H23.4953Z" fill="white"/>
<path d="M30 38C34.4183 38 38 34.4183 38 30C38 25.5817 34.4183 22 30 22C25.5817 22 22 25.5817 22 30C22 34.4183 25.5817 38 30 38Z" fill="#EF6250"/>
<path d="M34.2005 28.7966H33.6456L34.0115 27.9166C34.1587 27.5597 33.9439 27.1669 33.5302 27.04C33.1165 26.913 32.6611 27.0983 32.5139 27.4551L31.4678 29.9767L30.7677 27.6284C30.6782 27.3247 30.36 27.1137 29.998 27.1137C29.636 27.1137 29.3178 27.3265 29.2283 27.6284L28.5282 29.9767L27.4821 27.4551C27.3349 27.0983 26.8775 26.913 26.4658 27.04C26.0521 27.1669 25.8373 27.5597 25.9845 27.9166L26.3504 28.7966H25.7955C25.356 28.7966 25 29.1036 25 29.4827C25 29.8618 25.356 30.1689 25.7955 30.1689H26.9193L27.9037 32.5447C28.0211 32.8277 28.3353 33.013 28.6893 32.9993C29.0394 32.9856 29.3357 32.7763 29.4232 32.4847L30 30.5514L30.5768 32.4847C30.6643 32.7763 30.9626 32.9856 31.3107 32.9993C31.3226 32.9993 31.3345 32.9993 31.3465 32.9993C31.6806 32.9993 31.9809 32.8175 32.0963 32.5447L33.0807 30.1689H34.2045C34.644 30.1689 35 29.8618 35 29.4827C35 29.1036 34.644 28.7966 34.2045 28.7966H34.2005Z" fill="white"/>
</svg>
