<svg width="40" height="40" viewBox="0 0 40 40" fill="none" xmlns="http://www.w3.org/2000/svg">
<path d="M27.7759 36.1641H13.0523C10.9541 36.1641 9.25391 34.4639 9.25391 32.3657V13.1055H31.5743V32.3657C31.5743 34.4639 29.8741 36.1641 27.7759 36.1641Z" fill="#F9D2C0"/>
<path d="M3.82812 6.61761V15.5893C3.82812 17.1248 5.0733 18.37 6.60882 18.37H9.25482V13.102H31.5752V18.37H34.2212C35.7567 18.37 37.0019 17.1248 37.0019 15.5893V6.61761C37.0019 5.08209 35.7567 3.83691 34.2212 3.83691H6.60882C5.0733 3.83691 3.82812 5.08209 3.82812 6.61761Z" fill="#EF6250"/>
<path d="M17.0914 26.9893H14.4065C13.6642 26.9893 13.0625 27.591 13.0625 28.3332V31.0181C13.0625 31.7604 13.6642 32.3621 14.4065 32.3621H17.0914C17.8336 32.3621 18.4353 31.7604 18.4353 31.0181V28.3332C18.4353 27.591 17.8336 26.9893 17.0914 26.9893Z" fill="#EF6250"/>
<path d="M27.7706 13.1055H23.625V36.1641H27.7706V13.1055Z" fill="white"/>
</svg>
