<svg width="48" height="36" viewBox="0 0 48 36" fill="none" xmlns="http://www.w3.org/2000/svg">
<path d="M15.4897 14.9755C19.0728 14.9755 21.9774 12.0708 21.9774 8.48773C21.9774 4.90466 19.0728 2 15.4897 2C11.9066 2 9.00195 4.90466 9.00195 8.48773C9.00195 12.0708 11.9066 14.9755 15.4897 14.9755Z" fill="#F9D2C0"/>
<path d="M15.7625 13.3828C21.8984 13.3828 26.8843 17.9976 26.8843 23.6842V26.5029C26.8843 28.4694 25.161 30.0656 23.0378 30.0656H8.48709C6.36392 30.0656 4.64062 28.4694 4.64062 26.5029V23.6842C4.64062 18.0009 9.62298 13.3828 15.7625 13.3828Z" fill="#F9D2C0"/>
<path d="M31.9663 14.9755C35.5493 14.9755 38.454 12.0708 38.454 8.48773C38.454 4.90466 35.5493 2 31.9663 2C28.3832 2 25.4785 4.90466 25.4785 8.48773C25.4785 12.0708 28.3832 14.9755 31.9663 14.9755Z" fill="#D4E2FC"/>
<path d="M32.239 13.3828C38.375 13.3828 43.3608 17.9976 43.3608 23.6842V26.5029C43.3608 28.4694 41.6376 30.0656 39.5144 30.0656H24.9636C22.8405 30.0656 21.1172 28.4694 21.1172 26.5029V23.6842C21.1172 18.0009 26.0995 13.3828 32.239 13.3828Z" fill="#D4E2FC"/>
<path d="M24.5 36C28.9183 36 32.5 32.4183 32.5 28C32.5 23.5817 28.9183 20 24.5 20C20.0817 20 16.5 23.5817 16.5 28C16.5 32.4183 20.0817 36 24.5 36Z" fill="#6D8DFF"/>
<path d="M21.5 27.4194L23.8529 30L27.5 26" stroke="white" stroke-width="1.6" stroke-linecap="round" stroke-linejoin="round"/>
</svg>
