<svg width="32" height="32" viewBox="0 0 32 32" fill="none" xmlns="http://www.w3.org/2000/svg">
<path d="M24.172 5.94751C20.8351 5.94751 17.8996 4.3867 15.9964 2C14.0932 4.3867 11.1577 5.94751 7.82079 5.94751C6.46953 5.94751 5.1828 5.67804 4 5.2196V14.7034C4 27.0289 16 30 16 30C16 30 28 27.0499 28 14.7034V5.2196C26.8136 5.67804 25.5305 5.94751 24.1792 5.94751H24.172Z" stroke="#2D2D2D" stroke-width="1.6" stroke-linecap="round" stroke-linejoin="round"/>
<path d="M16 16C17.6569 16 19 14.6569 19 13C19 11.3431 17.6569 10 16 10C14.3431 10 13 11.3431 13 13C13 14.6569 14.3431 16 16 16Z" stroke="#2D2D2D" stroke-width="1.6" stroke-linecap="round" stroke-linejoin="round"/>
<path d="M10 22C10.281 20.8711 11.0319 19.8562 12.1254 19.1272C13.2189 18.3982 14.5877 18 16 18C17.4123 18 18.7811 18.3982 19.8746 19.1272C20.9681 19.8562 21.719 20.8711 22 22" stroke="#2D2D2D" stroke-width="1.6" stroke-linecap="round" stroke-linejoin="round"/>
</svg>
