<svg width="24" height="25" viewBox="0 0 24 25" fill="none" xmlns="http://www.w3.org/2000/svg">
<path d="M9.85 20.6301H9.4C5.8 20.6301 4 19.6923 4 15.0029V13.1272C4 9.37573 5.8 7.5 9.4 7.5H16.6C20.2 7.5 22 9.37573 22 13.1272V15.0029C22 18.7544 20.2 20.6301 16.6 20.6301H16.15C15.871 20.6301 15.601 20.7708 15.43 21.0053L14.08 22.881C13.486 23.7063 12.514 23.7063 11.92 22.881L10.57 21.0053C10.426 20.7989 10.093 20.6301 9.85 20.6301Z" stroke="white" stroke-width="1.6" stroke-miterlimit="10" stroke-linecap="round" stroke-linejoin="round"/>
<circle cx="6.5" cy="3" r="1.5" stroke="white" stroke-width="1.6"/>
<circle cx="19.5" cy="3" r="1.5" stroke="white" stroke-width="1.6"/>
<path d="M7 3.5L10 7.5" stroke="white" stroke-width="1.6"/>
<path d="M19 3.5L16 7.5" stroke="white" stroke-width="1.6"/>
<rect x="14" y="12.5" width="2" height="3" rx="1" fill="white"/>
<rect x="10" y="12.5" width="2" height="3" rx="1" fill="white"/>
</svg>
