<svg width="56" height="56" viewBox="0 0 56 56" fill="none" xmlns="http://www.w3.org/2000/svg">
<rect width="56" height="56" rx="28" fill="white"/>
<path d="M34.9289 23.3202C37.5917 20.7308 37.5917 16.5316 34.9289 13.9421C32.2662 11.3526 27.9481 11.3526 25.2854 13.9421L19.6406 19.4315L29.2842 28.8097L34.9289 23.3202Z" fill="url(#paint0_linear_2269_269115)"/>
<path d="M19.6449 19.4346L13.9971 24.924C11.3343 27.5135 11.3343 31.7127 13.9971 34.3021C16.6598 36.8916 20.9778 36.8916 23.6406 34.3021L29.2854 28.8127L19.6418 19.4346H19.6449Z" fill="url(#paint1_linear_2269_269115)"/>
<path d="M38 39C38 42.3142 35.3142 45 32 45C28.6858 45 26 42.3142 26 39C26 35.6858 28.6858 33 32 33C35.3142 33 38 35.6858 38 39Z" fill="url(#paint2_linear_2269_269115)"/>
<path d="M41.5 31C43.433 31 45 29.433 45 27.5C45 25.567 43.433 24 41.5 24C39.567 24 38 25.567 38 27.5C38 29.433 39.567 31 41.5 31Z" fill="url(#paint3_linear_2269_269115)"/>
<path style="mix-blend-mode:multiply" d="M35.0718 38H28.9282C28.4156 38 28 38.3892 28 38.8693V39.1307C28 39.6108 28.4156 40 28.9282 40H35.0718C35.5844 40 36 39.6108 36 39.1307V38.8693C36 38.3892 35.5844 38 35.0718 38Z" fill="url(#paint4_linear_2269_269115)"/>
<path style="mix-blend-mode:multiply" d="M41.7513 25H41.7487C41.3352 25 41 25.3848 41 25.8594V29.1406C41 29.6152 41.3352 30 41.7487 30H41.7513C42.1648 30 42.5 29.6152 42.5 29.1406V25.8594C42.5 25.3848 42.1648 25 41.7513 25Z" fill="url(#paint5_linear_2269_269115)"/>
<defs>
<linearGradient id="paint0_linear_2269_269115" x1="26.6172" y1="12.6863" x2="32.04" y2="32.9498" gradientUnits="userSpaceOnUse">
<stop stop-color="#FF9F6B"/>
<stop offset="1" stop-color="#FF3743"/>
</linearGradient>
<linearGradient id="paint1_linear_2269_269115" x1="19" y1="17.5" x2="17.7504" y2="34.9822" gradientUnits="userSpaceOnUse">
<stop stop-color="#FFED57"/>
<stop offset="0.99" stop-color="#FFCA5C"/>
</linearGradient>
<linearGradient id="paint2_linear_2269_269115" x1="29.4833" y1="29.8612" x2="33.5917" y2="44.7863" gradientUnits="userSpaceOnUse">
<stop stop-color="#9EE1FE"/>
<stop offset="1" stop-color="#62B6F5"/>
</linearGradient>
<linearGradient id="paint3_linear_2269_269115" x1="40.0337" y1="22.1642" x2="42.431" y2="30.8749" gradientUnits="userSpaceOnUse">
<stop stop-color="#BFFFD9"/>
<stop offset="1" stop-color="#90E2AC"/>
</linearGradient>
<linearGradient id="paint4_linear_2269_269115" x1="31.2127" y1="36.3208" x2="32.3494" y2="40.7341" gradientUnits="userSpaceOnUse">
<stop stop-color="#9EE1FE"/>
<stop offset="1" stop-color="#62B6F5"/>
</linearGradient>
<linearGradient id="paint5_linear_2269_269115" x1="40.8585" y1="23.7832" x2="42.7353" y2="29.7224" gradientUnits="userSpaceOnUse">
<stop stop-color="#BFFFD9"/>
<stop offset="1" stop-color="#90E2AC"/>
</linearGradient>
</defs>
</svg>
