<svg width="20" height="20" viewBox="0 0 20 20" fill="none" xmlns="http://www.w3.org/2000/svg">
<path fill-rule="evenodd" clip-rule="evenodd" d="M10 2C5.58172 2 2 5.58172 2 10C2 11.2091 2.26821 12.3555 2.74839 13.383L2.08489 16.5702C2.01149 16.9228 2.3237 17.235 2.6763 17.1616L5.45361 16.5835C6.74465 17.4767 8.31122 18 10 18C14.4183 18 18 14.4183 18 10C18 5.58172 14.4183 2 10 2Z" fill="#EE0000"/>
<path d="M9.06818 12.2344V12.1236C9.07102 11.6094 9.11932 11.2003 9.21307 10.8963C9.30966 10.5923 9.44602 10.348 9.62216 10.1634C9.7983 9.97585 10.0128 9.80398 10.2656 9.64773C10.4389 9.53977 10.5938 9.42188 10.7301 9.29403C10.8693 9.16335 10.9787 9.01847 11.0582 8.85938C11.1378 8.69744 11.1776 8.51705 11.1776 8.31818C11.1776 8.09375 11.125 7.89915 11.0199 7.73438C10.9148 7.5696 10.7727 7.44176 10.5938 7.35085C10.4176 7.25994 10.2202 7.21449 10.0014 7.21449C9.79972 7.21449 9.60795 7.25852 9.42614 7.34659C9.24716 7.43182 9.09801 7.5625 8.97869 7.73864C8.86222 7.91193 8.79688 8.1321 8.78267 8.39915H7.26562C7.27983 7.85938 7.41051 7.40767 7.65767 7.04403C7.90767 6.6804 8.23722 6.40767 8.64631 6.22585C9.05824 6.04403 9.51278 5.95312 10.0099 5.95312C10.5526 5.95312 11.0298 6.0483 11.4418 6.23864C11.8565 6.42898 12.179 6.70028 12.4091 7.05256C12.642 7.40199 12.7585 7.81676 12.7585 8.29688C12.7585 8.62074 12.706 8.91051 12.6009 9.16619C12.4986 9.42188 12.3523 9.64915 12.1619 9.84801C11.9716 10.0469 11.7457 10.2244 11.4844 10.3807C11.2543 10.5227 11.0653 10.6705 10.9176 10.8239C10.7727 10.9773 10.6648 11.1577 10.5938 11.3651C10.5256 11.5696 10.4901 11.8224 10.4872 12.1236V12.2344H9.06818ZM9.80966 14.8935C9.55398 14.8935 9.33381 14.8026 9.14915 14.6207C8.96449 14.4389 8.87216 14.2173 8.87216 13.956C8.87216 13.7003 8.96449 13.4815 9.14915 13.2997C9.33381 13.1179 9.55398 13.027 9.80966 13.027C10.0625 13.027 10.2812 13.1179 10.4659 13.2997C10.6534 13.4815 10.7472 13.7003 10.7472 13.956C10.7472 14.1293 10.7031 14.2869 10.6151 14.429C10.5298 14.571 10.4162 14.6847 10.2741 14.7699C10.1349 14.8523 9.98011 14.8935 9.80966 14.8935Z" fill="white"/>
</svg>
